<?xml version="1.0" standalone="no"?>
<!DOCTYPE svg PUBLIC "-//W3C//DTD SVG 20010904//EN"
 "http://www.w3.org/TR/2001/REC-SVG-20010904/DTD/svg10.dtd">
<svg version="1.0" xmlns="http://www.w3.org/2000/svg"
 width="165.000000pt" height="118.000000pt" viewBox="0 0 165.000000 118.000000"
 preserveAspectRatio="xMidYMid meet">

<g transform="translate(0.000000,118.000000) scale(0.100000,-0.100000)"
fill="#000000" stroke="none">
<path d="M843 1134 c-25 -25 -28 -56 -8 -106 5 -13 -5 -20 -46 -36 -51 -19
-54 -19 -103 -2 -28 10 -73 20 -101 23 l-50 6 55 -27 c30 -14 76 -47 102 -73
l47 -47 39 19 c21 11 63 24 93 31 71 14 121 -5 146 -57 15 -31 15 -43 5 -91
-16 -77 -72 -189 -126 -252 -25 -30 -46 -56 -46 -59 0 -11 127 102 164 146 76
90 110 203 87 288 -12 45 -64 98 -106 109 -21 5 -23 9 -14 31 15 41 10 73 -16
98 -33 34 -87 34 -122 -1z"/>
<path d="M1037 293 c-4 -3 -7 -17 -7 -30 0 -19 5 -23 29 -23 36 0 46 13 31 40
-10 19 -40 27 -53 13z"/>
<path d="M764 275 c-18 -13 -17 -19 39 -130 74 -150 81 -150 154 -10 55 105
63 139 37 149 -24 9 -33 0 -74 -85 l-38 -79 -31 66 c-17 36 -31 70 -31 75 0
19 -37 28 -56 14z"/>
<path d="M1333 272 c-6 -4 -14 -19 -18 -34 -4 -15 -13 -29 -21 -32 -18 -7 -18
-42 0 -53 7 -4 16 -28 19 -52 7 -54 14 -61 66 -68 39 -5 41 -5 41 22 0 18 -6
28 -20 32 -30 8 -28 60 3 65 33 5 36 45 3 58 -16 6 -26 17 -26 29 0 23 -30 43
-47 33z"/>
<path d="M1034 197 c-3 -8 -4 -47 -2 -88 3 -71 4 -74 29 -77 26 -3 26 -2 32
73 3 43 3 83 0 91 -7 18 -52 18 -59 1z"/>
<path d="M1132 198 c-18 -18 -15 -62 6 -80 9 -9 31 -20 47 -26 29 -10 28 -11
-15 -9 -36 2 -45 -1 -48 -17 -5 -26 15 -36 75 -36 57 0 73 14 73 64 0 26 -40
56 -75 56 -8 0 -15 4 -15 9 0 4 17 8 38 7 31 -1 37 2 37 19 0 17 -8 20 -55 23
-34 2 -60 -2 -68 -10z"/>
<path d="M1478 200 c-22 -14 -40 -72 -32 -104 11 -44 49 -66 115 -66 69 0 72
5 67 110 l-3 65 -65 2 c-36 2 -73 -2 -82 -7z m80 -76 c2 -12 -4 -24 -12 -27
-19 -7 -40 18 -32 39 8 22 40 13 44 -12z"/>
</g>
</svg>
